<?xml version="1.0" encoding="utf-8"?>
<!-- Generator: Adobe Illustrator 23.0.2, SVG Export Plug-In . SVG Version: 6.00 Build 0)  -->
<svg version="1.1" id="Layer_1" xmlns="http://www.w3.org/2000/svg" xmlns:xlink="http://www.w3.org/1999/xlink" x="0px" y="0px"
	 viewBox="0 0 300 200" style="enable-background:new 0 0 300 200;" xml:space="preserve">
<style type="text/css">
	.st0{fill:#FFFFFF;}
	.st1{font-family:'OpenSans-Extrabold';}
	.st2{font-size:40px;}
</style>
<g>
	<path class="st0" d="M25.8,86c-2.8,0-5.5-1-7.7-3c-4.7-4.3-5-11.5-0.7-16.1c2.1-2.3,4.9-3.6,7.9-3.7c3.1-0.1,6,0.9,8.2,3
		c1.4,1.3,2.5,3,3.1,4.8c0.5,1.5,0.7,3,0.6,4.5c0,0.5-0.5,1-1.1,0.9c-0.6,0-1-0.5-0.9-1.1c0.1-1.3-0.1-2.5-0.5-3.7
		c-0.5-1.5-1.4-2.9-2.6-4c-1.9-1.7-4.3-2.6-6.8-2.5s-4.8,1.2-6.5,3.1c-3.5,3.8-3.2,9.8,0.6,13.3s9.8,3.2,13.3-0.6
		c0.4-0.4,1-0.4,1.4-0.1c0.4,0.4,0.4,1,0.1,1.4C32,84.7,28.9,86,25.8,86z"/>
</g>
<g>
	<path class="st0" d="M43.4,128.2c-3.6,0-7.1-1.7-9.3-4.8c-3.6-5.1-2.4-12.3,2.7-15.9c3-2.1,6.8-2.7,10.3-1.5
		c0.5,0.2,0.8,0.7,0.6,1.3c-0.2,0.5-0.7,0.8-1.3,0.6c-2.9-1-6-0.5-8.5,1.2c-4.2,3-5.2,8.9-2.2,13.1c3,4.2,8.9,5.2,13.1,2.2
		c2.1-1.5,3.4-3.6,3.8-6.1s-0.1-5-1.6-7c-0.3-0.5-0.2-1.1,0.2-1.4c0.5-0.3,1.1-0.2,1.4,0.2c1.8,2.5,2.5,5.5,1.9,8.5
		c-0.5,3-2.2,5.6-4.7,7.4C48,127.5,45.7,128.2,43.4,128.2z"/>
</g>
<g>
	<path class="st0" d="M58,60.8c-0.1,0-0.3,0-0.4-0.1c-3.5-1.6-5.1-5.7-3.5-9.2s5.7-5.1,9.2-3.5c1.7,0.8,3,2.1,3.7,3.9
		c0.7,1.7,0.6,3.6-0.1,5.4c-0.6,1.4-1.7,2.6-3.1,3.3c-0.5,0.3-1.1,0.1-1.4-0.4s-0.1-1.1,0.4-1.4c1-0.5,1.7-1.4,2.2-2.4
		c0.5-1.2,0.6-2.6,0.1-3.8c-0.5-1.2-1.4-2.2-2.6-2.8c-2.5-1.1-5.5,0-6.6,2.5s0,5.5,2.5,6.6c0.5,0.2,0.7,0.8,0.5,1.3
		C58.8,60.6,58.4,60.8,58,60.8z"/>
</g>
<g>
	<path class="st0" d="M77.4,90.6c-1.1,0-2.2-0.2-3.3-0.6c-1.9-0.7-3.4-2.1-4.5-3.8c-0.3-0.5-0.1-1.1,0.3-1.4
		c0.5-0.3,1.1-0.1,1.4,0.3c0.8,1.3,2,2.4,3.5,3c3.6,1.4,7.8-0.4,9.2-4c1.4-3.6-0.4-7.8-4-9.2s-7.8,0.4-9.2,4
		c-0.2,0.5-0.8,0.8-1.3,0.6s-0.8-0.8-0.6-1.3c1.8-4.7,7.1-7,11.8-5.1c4.7,1.8,7,7.1,5.1,11.8C84.5,88.4,81.1,90.6,77.4,90.6z"/>
</g>
<g>
	<path class="st0" d="M77.4,109.2c-1.2,0-2.4-0.4-3.4-1.2c-1.2-0.9-1.9-2.2-2-3.7c-0.1-1.2,0.1-2.4,0.8-3.5c0.3-0.5,0.9-0.6,1.4-0.3
		s0.6,0.9,0.3,1.4c-0.4,0.7-0.6,1.4-0.5,2.2c0.1,0.9,0.6,1.8,1.3,2.3c0.7,0.6,1.6,0.8,2.6,0.7c0.9-0.1,1.8-0.6,2.3-1.3
		c0.6-0.7,0.8-1.6,0.7-2.6c-0.1-0.9-0.6-1.8-1.3-2.3c-0.7-0.6-1.6-0.8-2.6-0.7c-0.5,0.1-1-0.3-1.1-0.9c-0.1-0.5,0.3-1,0.9-1.1
		c1.5-0.2,2.9,0.2,4,1.2c1.2,0.9,1.9,2.2,2,3.7c0.3,3-1.8,5.7-4.8,6.1C77.8,109.2,77.6,109.2,77.4,109.2z"/>
</g>
<g>
	<path class="st0" d="M56.6,102.8c-3.9,0-7.7-1.3-10.8-3.6c-3.8-2.9-6.3-7.1-7-11.9c-0.7-4.8,0.6-9.5,3.5-13.3s7.1-6.3,11.9-7
		s9.5,0.6,13.3,3.5l-1.2,1.6c-3.4-2.6-7.6-3.7-11.9-3.1c-4.2,0.6-8,2.8-10.6,6.2s-3.7,7.6-3.1,11.8c0.6,4.2,2.8,8,6.2,10.6
		s7.6,3.7,11.8,3.1c4.2-0.6,8-2.8,10.6-6.2c0.3-0.4,1-0.5,1.4-0.2s0.5,1,0.2,1.4c-2.9,3.8-7.1,6.3-11.9,7
		C58.3,102.8,57.4,102.8,56.6,102.8z"/>
</g>
<path class="st0" d="M174.9,77.5c-0.1-0.1-0.1-0.1-0.2-0.1h-7c-0.1,0-0.2,0.1-0.2,0.2c-0.1,0.5-3.1,11.4-4,15.1
	c-0.9-3.7-3.8-14.6-4-15.1c0-0.1-0.1-0.2-0.2-0.2h-7c-0.1,0-0.2,0-0.2,0.1s0,0.2,0,0.2l7.5,23c0,0.1,0.1,0.2,0.2,0.2h7.3
	c0.1,0,0.2-0.1,0.2-0.2l7.5-23C174.9,77.6,174.9,77.6,174.9,77.5z"/>
<path class="st0" d="M179.7,77.4h6.2c0.1,0,0.2,0.1,0.2,0.2v23c0,0.1-0.1,0.2-0.2,0.2h-6.2c-0.1,0-0.2-0.1-0.2-0.2v-23
	C179.5,77.5,179.6,77.4,179.7,77.4z"/>
<path class="st0" d="M211.4,80.3c-2-1.9-5-2.9-8.7-2.9h-8c-0.1,0-0.2,0.1-0.2,0.2v23c0,0.1,0.1,0.2,0.2,0.2h7.4
	c3.9,0,6.9-1.1,9.1-3.2c2.2-2.1,3.2-5.2,3.2-9.1C214.5,85,213.5,82.2,211.4,80.3z M207.9,88.9c0,1.8-0.5,3.5-1.6,4.9
	c-1,1.1-2.5,1.7-4,1.6h-1.4V83h1.8c1.4-0.1,2.7,0.4,3.6,1.4C207.4,85.6,207.9,87.2,207.9,88.9z"/>
<path class="st0" d="M217.8,88h8.9c0.1,0,0.2,0.1,0.2,0.2v4.9c0,0.1-0.1,0.2-0.2,0.2h-8.9c-0.1,0-0.2-0.1-0.2-0.2v-4.9
	C217.6,88.2,217.7,88,217.8,88z"/>
<path class="st0" d="M243.5,77.4h-5.6c-0.1,0-0.1,0-0.2,0.1l-7.9,6.4c-0.1,0.1-0.1,0.3,0,0.4l3.2,4c0.1,0.1,0.3,0.1,0.4,0
	c0.3-0.2,2.6-2,3.6-2.9c-0.1,3-0.1,14.8-0.1,15.3c0,0.1,0,0.1,0.1,0.2c0,0,0.1,0.1,0.2,0.1h6.3c0.1,0,0.2-0.1,0.2-0.2v-23
	C243.8,77.5,243.7,77.4,243.5,77.4C243.6,77.4,243.5,77.4,243.5,77.4z"/>
<path class="st0" d="M148.1,80.4c-1.9-2-4.8-3.1-8.5-3.1s-6.6,1-8.5,3.1s-2.9,5.1-2.9,9s1,7,3,9s4.8,3.1,8.5,3.1s6.6-1.1,8.5-3.1
	s2.9-5.1,2.9-9S150.1,82.5,148.1,80.4z M145,89.4c0.1,1.5-0.4,3.1-1.4,4.3c-2.3,1.9-5.7,1.9-8,0c-1-1.2-1.5-2.7-1.4-4.3
	c-0.1-1.5,0.4-3.1,1.4-4.2c2.3-1.9,5.7-1.9,8,0C144.6,86.3,145.1,87.9,145,89.4L145,89.4z"/>
<path class="st0" d="M263.3,80c-1.7-2-4.2-3-6.7-2.9c-4.3-0.4-8,2.8-8.4,7.1c0,0.4,0,0.9,0,1.3c-0.1,2,0.5,4.1,1.8,5.7
	c1.2,1.4,3,2.2,4.9,2.1c1.4,0,2.8-0.1,4.1-0.4c-0.3,0.6-0.7,1.2-1.2,1.6c-1.5,1-3.2,1.4-5,1.3c-0.9,0-1.8-0.1-2.7-0.2
	c-0.1,0-0.1,0-0.2,0.1c-0.1,0-0.1,0.1-0.1,0.2v4.9c0,0.1,0.1,0.2,0.2,0.2c1.1,0.1,2.2,0.2,3.2,0.2c4.3,0,7.5-1,9.5-3.1s3-5.4,3-10
	C265.7,84.7,264.9,81.9,263.3,80z M256.8,88.6c-1.6,0-2.9-1.6-2.9-3.6s1.3-3.5,2.9-3.5s2.9,1.6,2.9,3.5
	C259.7,87,258.4,88.6,256.8,88.6z"/>
<path class="st0" d="M125.3,92.3c0-0.1-0.1-0.1-0.2-0.1h-5.9c-0.1,0-0.2,0.1-0.2,0.2c-0.2,0.5-0.5,0.9-0.8,1.3c-2.3,1.9-5.7,1.9-8,0
	c-1-1.2-1.5-2.7-1.4-4.3c-0.1-1.5,0.4-3.1,1.4-4.2c2.3-1.9,5.7-1.9,8,0c0.3,0.3,0.5,0.6,0.6,0.9c0,0.1,0.1,0.1,0.2,0.1h6
	c0.1,0,0.1,0,0.2-0.1c0.1-0.1,0.1-0.1,0.1-0.2c-0.3-2-1.2-4-2.6-5.5c-1.9-2-4.8-3.1-8.5-3.1s-6.6,1-8.5,3.1s-3,5.1-3,9s1,7,3,9
	s4.8,3.1,8.5,3.1s6.6-1.1,8.5-3.1c1.5-1.6,2.4-3.7,2.7-5.9C125.4,92.5,125.4,92.4,125.3,92.3z"/>
<text transform="matrix(0.907 0 0 1 126.4 141.8232)" class="st0 st1 st2">Nigeria</text>
</svg>
