<?xml version="1.0" encoding="utf-8"?>
<!-- Generator: Adobe Illustrator 23.0.2, SVG Export Plug-In . SVG Version: 6.00 Build 0)  -->
<svg version="1.1" id="Layer_1" xmlns="http://www.w3.org/2000/svg" xmlns:xlink="http://www.w3.org/1999/xlink" x="0px" y="0px"
	 viewBox="0 0 1024 1024" style="enable-background:new 0 0 1024 1024;" xml:space="preserve">
<g id="XMLID_323_">
	<path id="XMLID_14_" class="st0" d="M905.9,753.1H166.1v-114H845c33.6,0,61,27.4,61,61L905.9,753.1L905.9,753.1z M186.1,733.1H886
		v-33c0-22.6-18.4-41-41-41H186.1V733.1z"/>
	<path id="XMLID_11_" class="st0" d="M308.6,659.1H166.1v-85.8h94.5c26.5,0,48.1,21.6,48.1,48.1v37.7H308.6z M186.1,639.1h102.5
		v-17.7c0-15.5-12.6-28.1-28.1-28.1H186v45.8H186.1z"/>
	<path id="XMLID_5_" class="st0" d="M905.9,893.1h-68v-160h68V893.1z M857.9,873.1h28v-120h-28V873.1z"/>
	<path id="XMLID_2_" class="st0" d="M186.1,893.1h-68V441.2c0-18.7,15.3-34,34-34s34,15.3,34,34V893.1z M138.1,873.1h28V441.2
		c0-7.7-6.3-14-14-14s-14,6.3-14,14V873.1z"/>
</g>
</svg>
