<?xml version="1.0" encoding="utf-8"?>
<!-- Generator: Adobe Illustrator 23.0.2, SVG Export Plug-In . SVG Version: 6.00 Build 0)  -->
<svg version="1.1" id="Layer_1" xmlns="http://www.w3.org/2000/svg" xmlns:xlink="http://www.w3.org/1999/xlink" x="0px" y="0px"
	 viewBox="0 0 512 512" style="enable-background:new 0 0 512 512;" xml:space="preserve">
<style type="text/css">
	.st0{fill:#FFFFFF;}
</style>
<g id="Outline">
	<path class="st0" d="M32,288h288v-16H32v-16h288v-16h-67.9l17.3-40.3c10.5-1.4,19.7-7.9,24.4-17.4l9.4-18.7c2-4,0.4-8.8-3.6-10.7
		c-1.1-0.6-2.3-0.8-3.6-0.8h-41.2c-12.1,0-23.2,6.8-28.6,17.7l-7.1,14.3l-5.2-25.3c0-0.1,0-0.2-0.1-0.3
		c-4.4-17.8-20.4-30.3-38.8-30.3h-15c5.2-6.9,8-15.3,8-24V80c0-22.1-17.9-40-40-40c-4.8,0-9.6,0.9-14.1,2.6
		c-9.6-12.1-27.2-14.1-39.3-4.5s-14.1,27.2-4.5,39.3C74.5,83,80.9,86.7,88,87.7V104c0,8.7,2.8,17.1,8,24h-8
		c-18.2,0-34.2,12.3-38.7,30l15.5,4c2.7-10.6,12.3-18,23.2-18h11.7l29.6,44.4c1.5,2.2,4,3.6,6.7,3.6c0.2,0,0.3,0,0.5,0
		c2.8-0.2,5.4-1.9,6.7-4.4l21.8-43.6H175c11,0,20.5,7.4,23.2,18l9.7,47.2L194.7,240H190l-8.4-29.5c7.9-16.1,4.7-35.5-8-48.2
		l-11.3,11.3c10.1,10.1,10.1,26.6,0,36.7c-1.5,1.5-2.3,3.5-2.3,5.7v24H96v-72H80v72H64v-64H48v64H24c-4.4,0-8,3.6-8,8v208
		c0,4.4,3.6,8,8,8h320v-16H32V288z M104.2,107.1l17.5-17.5c9.6,4,19.9,6.1,30.3,6.4v8c0,13.3-10.8,24-24,24
		C115.9,127.9,105.8,119,104.2,107.1z M152,80c-9.9-0.3-19.6-2.7-28.4-7.1c-3.1-1.5-6.8-0.9-9.2,1.5L104,84.7V80
		c0-13.3,10.7-24,24-24S152,66.7,152,80z M80,60c0-6.6,5.4-12,12-12c3.1,0,6,1.2,8.2,3.3c-5.7,5.5-9.6,12.6-11.3,20.3
		C83.7,70.2,80,65.4,80,60z M135,168.1L118.9,144h28.1L135,168.1z M240.5,176.8c2.7-5.4,8.2-8.9,14.3-8.8h28.2l-3.6,7.2
		c-2.7,5.4-8.2,8.9-14.3,8.8h-28.2L240.5,176.8z M229.3,200h22.6l-17.1,40h-22.6L229.3,200z"/>
	<rect x="48" y="312" class="st0" width="16" height="16"/>
	<rect x="48" y="344" class="st0" width="16" height="64"/>
	<path class="st0" d="M184,424h32c4.4,0,8-3.6,8-8v-24h24c4.4,0,8-3.6,8-8v-32c0-4.4-3.6-8-8-8h-24v-24c0-4.4-3.6-8-8-8h-32
		c-4.4,0-8,3.6-8,8v24h-24c-4.4,0-8,3.6-8,8v32c0,4.4,3.6,8,8,8h24v24C176,420.4,179.6,424,184,424z M160,376v-16h24
		c4.4,0,8-3.6,8-8v-24h16v24c0,4.4,3.6,8,8,8h24v16h-24c-4.4,0-8,3.6-8,8v24h-16v-24c0-4.4-3.6-8-8-8H160z"/>
	<path class="st0" d="M456,176h-8c5.2-6.9,8-15.3,8-24v-24c0-22.1-17.9-40-40-40h-32c-13.3,0-24,10.8-24,24c0,10.2,6.4,19.2,16,22.6
		V152c0,8.7,2.8,17.1,8,24h-8c-22.1,0-40,17.9-40,40v128c0,4.4,3.6,8,8,8h24v97.4c-12.5,4.4-19,18.1-14.6,30.6
		c3.4,9.6,12.5,16,22.6,16h80c4.4,0,8-3.6,8-8v-72h-16v32h-24V336h-16v112h-24V320h64v80h16v-48h24c4.4,0,8-3.6,8-8V216
		C496,193.9,478.1,176,456,176z M384,104h32c13.2,0,24,10.8,24,24v16h-20.7l-21.7-21.7c-1.5-1.5-3.5-2.3-5.7-2.3h-8
		c-4.4,0-8-3.6-8-8S379.6,104,384,104z M392,152v-12.7l18.3,18.3c1.5,1.5,3.5,2.3,5.7,2.3h22.6c-4.4,12.5-18.1,19-30.6,14.6
		C398.4,171.2,392,162.2,392,152z M448,480h-24v-16h24V480z M408,480h-32c-4.4,0-8-3.6-8-8s3.6-8,8-8h32V480z M368,336h-16v-16h16
		V336z M384,304v-88h-16v88h-16v-88c0-13.2,10.8-24,24-24h80c13.2,0,24,10.8,24,24v88h-16v-88h-16v88H384z M464,336v-15.9l16,0.2
		V336H464z"/>
	<path class="st0" d="M203.6,86.7l20.4,13.6V112c0,13.2,10.8,24,24,24h64c13.2,0,24-10.8,24-24V40c0-13.2-10.8-24-24-24h-64
		c-13.2,0-24,10.8-24,24v19.7l-20.4,13.6c-3.7,2.5-4.7,7.4-2.2,11.1C201.9,85.3,202.7,86.1,203.6,86.7z M236.4,70.7
		c2.2-1.5,3.6-4,3.6-6.7V40c0-4.4,3.6-8,8-8h64c4.4,0,8,3.6,8,8v72c0,4.4-3.6,8-8,8h-64c-4.4,0-8-3.6-8-8V96c0-2.7-1.3-5.2-3.6-6.7
		l-14-9.3L236.4,70.7z"/>
	<rect x="272" y="80" class="st0" width="16" height="24"/>
	<rect x="272" y="48" class="st0" width="16" height="16"/>
</g>
</svg>
