<?xml version="1.0" encoding="utf-8"?>
<!-- Generator: Adobe Illustrator 23.0.2, SVG Export Plug-In . SVG Version: 6.00 Build 0)  -->
<svg version="1.1" id="Layer_1" xmlns="http://www.w3.org/2000/svg" xmlns:xlink="http://www.w3.org/1999/xlink" x="0px" y="0px" width="100%" height="100%"
	 viewBox="0 0 512 512" style="enable-background:new 0 0 512 512;" xml:space="preserve">
<title>recovered heart patient</title>
<path class="st0" d="M404.6,292.9c-11.6,0-22.5,5.5-29.3,14.9c-6.8-9.4-17.7-14.9-29.3-14.9c-12.1,0-21.9,5-28.5,14.4
	c-5.1,7.3-7.9,17.1-7.9,27.5c0,45,59.3,84,61.9,85.6c2.3,1.5,5.3,1.5,7.6,0c2.5-1.6,61.9-40.8,61.9-85.6
	C440.9,314.5,428.2,292.9,404.6,292.9z M375.2,406c-12.5-9-51.7-39.6-51.7-71.2c0-4.7,1.1-27.9,22.3-27.9c12.3,0,22.3,10,22.3,22.4
	c0,3.9,3.1,7,7,7s7-3.1,7-7c0-12.3,10-22.3,22.3-22.3c16.3,0,22.3,17.1,22.3,27.9C426.9,366.2,387.8,397,375.2,406z"/>
<path class="st0" d="M375.2,239.3c-45.1,0-86.2,25.7-105.9,66.2c-1.1-0.3-2.1-0.7-3.1-1l-8.8-19.9c20.9-15.8,26.6-40.3,28.1-52.2
	c14.2-3.8,27.2-20.5,32.4-42.6c2.8-11.9-1.3-23-10.2-27.6c-2.5-1.3-5.2-2-8-1.9c0.5-3.5,0.9-7.7,1.4-12.9
	c1.2-12.2,1.9-24.5,1.9-27.6c0-13-4.4-32.8-16.9-49.3c-20.7-27.3-53.5-33.1-77.3-33.1c-23.4,0-56,5.4-78,30.9
	c-17.4,20.1-21.1,44.6-19.4,56.2c0.1,0.4,0.4,2.4,1,5.3c0,0.4,0.1,0.8,0.2,1.1c0,0.1,0.1,0.2,0.1,0.5c1.5,7.4,4.1,19.4,6.8,29.3
	c-2.4,0.2-4.8,0.9-6.9,2.1c-8.6,4.6-12.5,15.5-9.8,27c5.2,22.1,18.3,38.8,32.5,42.6c1.7,11.6,7.5,35.5,27.4,51.3l-9.4,20.3
	c-6.7,2.1-14,4.1-21.7,6.3C84.1,323.6,19,341.6,19,401.5v43.2c0,14.6,18.8,30.3,32.1,30.3h319.3c1.6,0.1,3.2,0.1,4.9,0.1
	c65.1,0.2,118-52.4,118.2-117.5s-52.4-118-117.5-118.2C375.7,239.3,375.5,239.3,375.2,239.3L375.2,239.3z M141.4,77.5
	c14.9-17.3,37.6-26,67.4-26c30,0,52.3,9.3,66.1,27.5c4.9,6.6,8.7,14,11,21.9c-6.3-6.8-13.6-12.7-21.6-17.3c-3.3-1.9-7.6-0.7-9.5,2.7
	c-0.3,0.5-0.5,1.1-0.7,1.6c-0.1,0.3-8.7,28.3-63.1,52.9c-20.4,9.2-36.8,11-48.8,5.4c-7.7-3.8-13.6-10.5-16.2-18.7l0,0
	c-0.4-2.2-0.8-3.9-0.9-5C122.8,105.5,135.1,84.8,141.4,77.5z M148.8,226c-0.2-3.7-3.3-6.7-7-6.7h-0.3c-8.4,0-20.3-13-25-32.6
	c-1.4-6.1,0.5-10.2,2.8-11.5c2.7-1.4,5.5,1.1,6.6,2.3c2.7,2.8,7.1,2.9,9.9,0.3c2.5-2.4,2.9-6.3,0.9-9.1c-0.9-1.6-2.2-6-3.7-11.6
	c1,0.6,2,1.1,3.1,1.7c6.8,3.2,14.2,4.7,21.6,4.6c11.6,0,24.6-3.3,39.1-9.8c43.1-19.5,60.5-41.6,67.1-53.5c3.2,2.3,6.2,4.9,9,7.7
	c9.8,9.7,14.8,19.7,14.9,30c-1,12.7-2.6,27.7-4.1,31.3c-2.1,3.3-1.1,7.6,2.2,9.6c2.9,1.8,6.7,1.3,9-1.3c1.3-1.5,3.8-3.8,6.2-2.5
	c2.6,1.3,4.5,5.9,3,12c-4.7,19.7-16.7,32.8-25.1,32.6c-3.8-0.1-7,3-7.1,6.8c-0.3,5.8-3,35.2-27.1,50.1c-9.3,5.8-21,8.7-34.6,8.7
	c-13.6,0-25.2-3-34.5-8.9C152.3,261.1,149.1,231.8,148.8,226z M164.8,312.8l9.9-21.4c10.3,5,22.3,7.6,35.7,7.6
	c13.1,0,24.7-2.4,34.8-7l9.4,21.1c0.8,1.8,2.3,3.2,4.2,3.8c1.6,0.5,3.3,1.1,5.1,1.7c-1.1,3.2-2.1,6.5-2.9,9.8
	c-7.6,13.9-25.2,29.8-50.5,29.8c-33,0-49.7-25.9-53.1-40.5c1.1-0.3,2.2-0.7,3.3-1C162.5,315.9,164,314.6,164.8,312.8L164.8,312.8z
	 M51.1,461c-6.6,0-18.1-10.4-18.1-16.3v-43.2c0-21.9,10.3-38.3,32.6-51.7c20.2-12.1,46.5-19.4,69.8-25.9c2.9-0.8,5.7-1.6,8.5-2.4
	c5.2,21.3,27.9,50.6,66.6,50.6c17.3,0,34-6.3,47-17.7c0,0.9,0,1.8,0,2.8c0,43.4,23.8,83.2,62,103.8H51.1z M375.2,461.1h-0.2
	c-0.4-0.1-0.8-0.1-1.2-0.1h-3.3c-57.3-2.6-101.6-51.1-98.9-108.4c2.6-57.3,51.1-101.6,108.4-98.9s101.6,51.1,98.9,108.4
	C476.5,417.5,430.7,461.2,375.2,461.1L375.2,461.1z"/>
</svg>
